<svg width="281" height="89" viewBox="0 0 281 89" fill="none" xmlns="http://www.w3.org/2000/svg">
<path d="M60.3241 16.5839C60.2675 16.1465 59.9277 15.9104 59.6383 15.8826C59.3551 15.8548 53.799 15.7646 53.799 15.7646C53.799 15.7646 49.1553 10.7864 48.696 10.2795C48.2366 9.77266 47.3431 9.92541 46.9908 10.0365C46.9908 10.0365 46.1161 10.3351 44.6563 10.835C44.4109 9.96012 44.0523 8.88394 43.5363 7.80775C41.8814 4.3223 39.4589 2.48237 36.533 2.47542H36.5204C36.3191 2.47542 36.1177 2.49625 35.9101 2.51708C35.822 2.40599 35.7402 2.28796 35.6458 2.18381C34.381 0.677153 32.745 -0.0588187 30.7881 0.00366945C27.0065 0.121703 23.2437 3.13502 20.1919 8.48818C18.04 12.2514 16.4103 16.9866 15.9446 20.6456C11.603 22.1314 8.5638 23.166 8.50087 23.1868C6.31116 23.9436 6.24194 24.02 5.9525 26.2973C5.73227 28.0192 0 76.9405 0 76.9405L48.0542 86.1124L68.8816 80.3982C68.8816 80.3982 60.387 17.0074 60.3304 16.5769L60.3241 16.5839ZM42.2527 11.6542C41.1452 12.0292 39.8868 12.4596 38.5214 12.9318C38.4962 10.8211 38.2634 7.87718 37.3699 5.34294C40.2391 5.94005 41.6486 9.52271 42.2464 11.6612L42.2527 11.6542ZM36.0107 13.7858C33.4938 14.6467 30.7441 15.5841 27.9881 16.5283C28.762 13.2512 30.2344 9.98789 32.0403 7.85635C32.7136 7.06484 33.6511 6.17611 34.7649 5.66927C35.8094 8.07853 36.0359 11.4876 36.0107 13.7927V13.7858ZM30.8574 2.77398C31.7446 2.75315 32.4933 2.96839 33.1289 3.43358C32.1095 4.0168 31.1216 4.85692 30.1904 5.95393C27.7867 8.79368 25.9494 13.2095 25.2132 17.4656C22.9228 18.2502 20.6827 19.014 18.6252 19.7152C19.9277 13.0082 25.0181 2.9545 30.8511 2.76704L30.8574 2.77398Z" fill="#95BF47"/>
<path d="M59.647 15.8829C59.3639 15.8552 53.8078 15.7649 53.8078 15.7649C53.8078 15.7649 49.1641 10.7867 48.7047 10.2798C48.5349 10.0924 48.302 9.99515 48.0566 9.95349V86.1197L68.8841 80.4055C68.8841 80.4055 60.3895 17.0147 60.3329 16.5842C60.2763 16.1468 59.9365 15.9107 59.647 15.8829Z" fill="#5E8E3E"/>
<path d="M36.5097 27.6999L34.0934 37.6842C34.0934 37.6842 31.394 36.3303 28.1976 36.5524C23.5098 36.8788 23.4595 40.142 23.5035 40.9613C23.7615 45.4258 34.408 46.4047 35.0058 56.8611C35.4777 65.0887 31.048 70.7196 24.6739 71.164C17.0225 71.6986 12.8066 66.7134 12.8066 66.7134L14.43 59.0968C14.43 59.0968 18.671 62.6308 22.0689 62.3878C24.2838 62.2351 25.0766 60.2424 25.0011 58.833C24.6676 53.0077 15.9968 53.3479 15.4494 43.7802C14.9901 35.7262 19.7848 27.5611 30.3621 26.8251C34.4395 26.5404 36.5223 27.6861 36.5223 27.6861L36.5097 27.6999Z" fill="white"/>
<path d="M97.0983 49.0083C94.682 47.5642 93.4425 46.3422 93.4425 44.6689C93.4425 42.5373 95.1665 41.1695 97.8596 41.1695C100.993 41.1695 103.793 42.6137 103.793 42.6137L106.002 35.1568C106.002 35.1568 103.969 33.4071 98.0044 33.4071C89.6923 33.4071 83.9348 38.6561 83.9348 46.0436C83.9348 50.2303 86.6216 53.4242 90.2082 55.7084C93.1027 57.5345 94.1409 58.8259 94.1409 60.7283C94.1409 62.6308 92.6937 64.304 90.0006 64.304C85.9924 64.304 82.2044 62.0198 82.2044 62.0198L79.8574 69.4767C79.8574 69.4767 83.3559 72.0665 89.2392 72.0665C97.7904 72.0665 103.932 67.4215 103.932 59.055C103.932 54.5628 100.83 51.369 97.1046 49.0083H97.0983Z" fill="black"/>
<path d="M131.161 33.33C126.951 33.33 123.642 35.5379 121.093 38.8845L120.955 38.8081L124.611 17.7288H115.091L105.847 71.3853H115.367L118.539 53.0415C119.778 46.1192 123.019 41.8561 126.058 41.8561C128.197 41.8561 129.022 43.4531 129.022 45.7374C129.022 47.1815 128.883 48.9312 128.606 50.3823L125.02 71.3853H134.54L138.265 49.6949C138.68 47.4107 138.957 44.6751 138.957 42.8421C138.957 36.9057 136.132 33.33 131.161 33.33Z" fill="black"/>
<path d="M160.481 33.3307C149.029 33.3307 141.447 44.7452 141.447 57.4581C141.447 65.6024 145.996 72.1428 154.554 72.1428C165.798 72.1428 173.38 61.0338 173.38 48.0154C173.38 40.4821 169.378 33.3307 160.481 33.3307ZM155.793 64.0749C152.553 64.0749 151.175 61.0338 151.175 57.2289C151.175 51.2162 154 41.3986 159.172 41.3986C162.551 41.3986 163.652 44.5924 163.652 47.7169C163.652 54.1879 160.827 64.0818 155.787 64.0818L155.793 64.0749Z" fill="black"/>
<path d="M197.724 33.3307C191.3 33.3307 187.657 39.5726 187.657 39.5726H187.518L188.072 33.9417H179.659C179.244 37.7465 178.489 43.5302 177.727 47.8696L171.108 86.2999H180.628L183.246 70.775H183.453C183.453 70.775 185.41 72.1428 189.041 72.1428C200.216 72.1428 207.528 59.5063 207.528 46.724C207.528 39.6489 204.702 33.3307 197.737 33.3307H197.724ZM188.619 64.2276C186.146 64.2276 184.687 62.7071 184.687 62.7071L186.272 52.8895C187.373 46.3421 190.482 42.0096 193.792 42.0096C196.686 42.0096 197.586 44.9743 197.586 47.7932C197.586 54.5697 193.93 64.2346 188.619 64.2346V64.2276Z" fill="black"/>
<path d="M221.104 18.2642C218.072 18.2642 215.655 20.9303 215.655 24.3533C215.655 27.4708 217.449 29.6023 220.135 29.6023H220.274C223.237 29.6023 225.792 27.3944 225.861 23.5132C225.861 20.4721 223.999 18.2642 221.104 18.2642Z" fill="black"/>
<path d="M207.797 71.3793H217.311L223.798 34.1641H214.209L207.797 71.3793Z" fill="black"/>
<path d="M248.004 34.0876H241.385L241.731 32.3379C242.285 28.7622 244.216 25.5614 247.388 25.5614C249.08 25.5614 250.421 26.096 250.421 26.096L252.283 17.8754C252.283 17.8754 250.628 16.9589 247.111 16.9589C243.594 16.9589 240.353 18.0212 237.798 20.4582C234.558 23.4993 233.041 27.9151 232.28 32.331L232.003 34.0806H227.586L226.208 41.9958H230.625L225.591 71.3722H235.112L240.145 41.9958H246.696L248.004 34.0806V34.0876Z" fill="black"/>
<path d="M270.902 34.1641C270.902 34.1641 264.95 50.7026 262.282 59.7356H262.143C261.961 56.8264 259.796 34.1641 259.796 34.1641H249.798L255.524 68.3382C255.662 69.1019 255.593 69.5532 255.316 70.0878C254.215 72.4485 252.353 74.7328 250.144 76.4061C248.351 77.8503 246.35 78.7667 244.764 79.3777L247.382 88.2858C249.313 87.8275 253.315 86.0779 256.694 82.5785C261.042 78.0863 265.038 71.164 269.178 61.7283L280.832 34.1779H270.902V34.1641Z" fill="black"/>
</svg>
