<svg width="281" height="57" viewBox="0 0 281 57" fill="none" xmlns="http://www.w3.org/2000/svg">
<path fill-rule="evenodd" clip-rule="evenodd" d="M8.85938 0H86.2872C91.1812 0 95.1466 3.96538 95.1466 8.85938V38.3844C95.1466 43.2784 91.1812 47.2438 86.2872 47.2438H58.5183L62.3189 56.5824L45.5475 47.2438H8.85938C3.96538 47.2438 0 43.2784 0 38.3844V8.85938C0 3.96538 3.96912 0 8.85938 0Z" fill="#7D57A4"/>
<path d="M4.79127 8.02448C5.34919 7.29806 6.16174 6.8974 7.22142 6.82251C9.19474 6.68397 10.3293 7.61634 10.6214 9.61213C11.8421 17.7226 13.1451 24.6087 14.5343 30.2665L23.0567 14.0531C23.8318 12.589 24.8054 11.8139 25.9811 11.7315C27.6886 11.6117 28.7558 12.7013 29.1864 14.9929C30.1599 20.149 31.3881 24.5787 32.8672 28.2857C33.8857 18.4153 35.5969 11.2784 37.9933 6.87868C38.5662 5.80777 39.4237 5.23486 40.562 5.15249C41.4719 5.08883 42.292 5.34345 43.0184 5.92384C43.7448 6.50049 44.1417 7.24564 44.2054 8.15554C44.2541 8.83703 44.1268 9.45861 43.8197 10.0128C42.3032 12.8286 41.0526 17.5092 40.064 24.0582C39.1017 30.3789 38.7422 35.3215 38.9931 38.8863C39.0643 39.8748 38.9145 40.7211 38.5438 41.4362C38.072 42.3087 37.383 42.7768 36.4693 42.8404C35.4471 42.9116 34.4211 42.4323 33.3952 41.3988C29.778 37.688 26.9135 32.1725 24.7941 24.8483C22.2854 29.8284 20.4131 33.5617 19.1775 36.0517C16.8933 40.444 14.9387 42.6981 13.3062 42.8142C12.2427 42.8891 11.3441 42.0017 10.6027 40.1444C8.60686 35.0632 6.46129 25.2265 4.17717 10.6344C4.03114 9.61587 4.23334 8.74342 4.79501 8.01699L4.79127 8.02448Z" fill="white"/>
<path d="M88.369 14.1352C86.9611 11.7013 84.8904 10.1998 82.1495 9.62685C81.4268 9.47707 80.7229 9.39844 80.0414 9.39844C76.3119 9.39844 73.2714 11.3381 70.9124 15.2173C68.8979 18.5274 67.8906 22.1783 67.8906 26.1698C67.8906 29.1729 68.5197 31.7416 69.7741 33.8722C71.182 36.3061 73.2527 37.8076 75.9936 38.3805C76.7126 38.5303 77.4203 38.6089 78.1017 38.6089C81.8687 38.6089 84.9092 36.6693 87.227 32.79C89.2452 29.4425 90.2525 25.7729 90.2525 21.7813C90.2525 18.7783 89.6234 16.2283 88.369 14.1389V14.1352ZM83.4638 24.9155C82.9321 27.4654 81.9398 29.3863 80.4982 30.6782C79.3561 31.7041 78.3114 32.1235 77.3603 31.9326C76.4093 31.7416 75.6491 30.9066 75.0762 29.4238C74.6194 28.2068 74.391 27.0273 74.391 25.8853C74.391 24.8967 74.4846 23.9456 74.6756 23.032C75.0163 21.4331 75.7016 19.8941 76.7275 18.4113C78.0194 16.5092 79.3711 15.7116 80.779 16.0149C81.7301 16.2059 82.4902 17.0409 83.0631 18.5237C83.52 19.7406 83.7484 20.9201 83.7484 22.0584C83.7484 23.047 83.6548 23.9981 83.4638 24.9117V24.9155Z" fill="white"/>
<path d="M64.0006 14.1352C62.5926 11.7013 60.5182 10.1998 57.7848 9.62685C57.0621 9.47707 56.3581 9.39844 55.6729 9.39844C51.9434 9.39844 48.9029 11.3381 46.5477 15.2173C44.5331 18.5274 43.5259 22.1783 43.5259 26.1698C43.5259 29.1729 44.1549 31.7416 45.4093 33.8722C46.8173 36.3061 48.8879 37.8076 51.6289 38.3805C52.3516 38.5303 53.0555 38.6089 53.7408 38.6089C57.5039 38.6089 60.5482 36.6693 62.866 32.79C64.8805 29.4425 65.8878 25.7729 65.8878 21.7813C65.8878 18.7783 65.2587 16.2283 64.0043 14.1389L64.0006 14.1352ZM59.0953 24.9155C58.5636 27.4654 57.5751 29.3863 56.1297 30.6782C54.9877 31.7041 53.943 32.1235 52.9919 31.9326C52.0408 31.7416 51.2806 30.9066 50.7115 29.4238C50.2547 28.2068 50.0263 27.0273 50.0263 25.8853C50.0263 24.8967 50.1199 23.9456 50.3108 23.032C50.6516 21.4331 51.3368 19.8941 52.3628 18.4113C53.6546 16.5092 55.0064 15.7116 56.4143 16.0149C57.3654 16.2059 58.1255 17.0409 58.6947 18.5237C59.1515 19.7406 59.3799 20.9201 59.3799 22.0584C59.3799 23.047 59.2825 23.9981 59.0953 24.9117V24.9155Z" fill="white"/>
<path d="M104.984 13.7982C102.389 16.3706 101.089 19.6321 101.089 23.5862C101.089 27.8436 102.377 31.2773 104.95 33.8872C107.522 36.4971 110.877 37.8039 115.019 37.8039C116.213 37.8039 117.569 37.5979 119.078 37.1898V30.9029C117.722 31.2998 116.543 31.4982 115.535 31.4982C113.472 31.4982 111.825 30.8092 110.589 29.4238C109.353 28.0421 108.736 26.1624 108.736 23.7809C108.736 21.5717 109.35 19.7556 110.578 18.329C111.806 16.9023 113.349 16.1872 115.206 16.1872C116.419 16.1872 117.707 16.3781 119.078 16.7638V10.4581C117.786 10.1137 116.37 9.94141 114.828 9.94141C110.862 9.94141 107.582 11.2258 104.984 13.7982ZM131.97 9.94141C128.383 9.94141 125.586 11.1359 123.579 13.5211C121.572 15.9063 120.568 19.2351 120.568 23.5076C120.568 28.1357 121.568 31.6742 123.567 34.1268C125.567 36.5794 128.469 37.8039 132.277 37.8039C136.085 37.8039 138.796 36.5757 140.784 34.1268C142.776 31.6742 143.769 28.2256 143.769 23.7847C143.769 19.3437 142.758 15.925 140.736 13.5323C138.714 11.1396 135.789 9.94141 131.966 9.94141H131.97ZM135.052 30.1502C134.336 31.2473 133.31 31.7978 131.97 31.7978C130.727 31.7978 129.779 31.2473 129.124 30.1502C128.469 29.0531 128.143 26.8663 128.143 23.5862C128.143 18.4975 129.431 15.9513 132.015 15.9513C134.752 15.9513 136.122 18.5349 136.122 23.706C136.122 26.9038 135.763 29.0531 135.048 30.1502H135.052ZM163.023 10.6753L161.63 16.6253C161.266 18.1455 160.929 19.7069 160.615 21.3058L159.836 25.4097C159.095 21.2983 158.08 16.3856 156.792 10.6753H147.753L144.353 37.1523H151.126L152.969 18.9056L157.593 37.1523H162.431L166.846 18.9468L168.759 37.1523H175.84L172.253 10.6753H163.023ZM195.42 10.6753L194.027 16.6253C193.663 18.1455 193.326 19.7069 193.012 21.3058L192.233 25.4097C191.492 21.2983 190.477 16.3856 189.189 10.6753H180.15L176.75 37.1523H183.523L185.366 18.9056L189.99 37.1523H194.828L199.243 18.9468L201.156 37.1523H208.237L204.65 10.6753H195.42ZM217.403 26.6791H223.754V21.186H217.403V16.307H224.72V10.6753H210.251V37.1523H224.769V31.4982H217.403V26.6791ZM244.914 22.504C245.651 21.3096 246.022 20.0702 246.022 18.7858C246.022 16.2883 245.045 14.3112 243.094 12.8546C241.143 11.4017 238.485 10.6716 235.115 10.6716H226.783V37.1486H233.935V25.0915H234.051L239.833 37.1486H247.385L241.671 25.2113C243.087 24.6009 244.165 23.6985 244.906 22.504H244.914ZM233.939 22.0772V15.7902C235.639 15.8314 236.852 16.116 237.586 16.644C238.316 17.1719 238.683 18.0519 238.683 19.2801C238.683 21.0924 237.103 22.0248 233.939 22.0772ZM250.257 13.7982C247.662 16.3706 246.363 19.6321 246.363 23.5862C246.363 27.8436 247.651 31.2773 250.223 33.8872C252.796 36.4971 256.151 37.8039 260.292 37.8039C261.487 37.8039 262.842 37.5979 264.351 37.1898V30.9029C263 31.2998 261.816 31.4982 260.809 31.4982C258.746 31.4982 257.098 30.8092 255.863 29.4238C254.627 28.0421 254.009 26.1624 254.009 23.7809C254.009 21.5717 254.623 19.7556 255.851 18.329C257.08 16.9023 258.622 16.1872 260.48 16.1872C261.693 16.1872 262.981 16.3781 264.351 16.7638V10.4581C263.059 10.1137 261.644 9.94141 260.101 9.94141C256.136 9.94141 252.856 11.2258 250.257 13.7982ZM273.469 31.4982V26.6791H279.82V21.186H273.469V16.307H280.786V10.6753H266.313V37.1523H280.831V31.4982H273.465H273.469Z" fill="black"/>
</svg>
